<?xml version="1.0" encoding="utf-8"?>
<!-- Generator: Adobe Illustrator 17.0.0, SVG Export Plug-In . SVG Version: 6.00 Build 0)  -->
<!DOCTYPE svg PUBLIC "-//W3C//DTD SVG 1.1//EN" "http://www.w3.org/Graphics/SVG/1.1/DTD/svg11.dtd">
<svg version="1.1" id="Capa_1" xmlns="http://www.w3.org/2000/svg" xmlns:xlink="http://www.w3.org/1999/xlink" x="0px" y="0px"
	 width="24px" height="24px" viewBox="0 0 24 24" enable-background="new 0 0 24 24" xml:space="preserve">
<g>
	<path fill="none" stroke="#FFFFFF" stroke-linejoin="round" stroke-miterlimit="10" d="M19,19.5h3c0.828,0,1.5-0.672,1.5-1.5v-3.5
		l-2-2v-9c0-1.656-1.344-3-3-3h-13c-1.656,0-3,1.344-3,3v9l-2,2V18c0,0.828,0.672,1.5,1.5,1.5h3"/>
	<path fill="none" stroke="#FFFFFF" stroke-linejoin="round" stroke-miterlimit="10" d="M21.5,23.5h-19c3-3,3-7,3-7h13
		C18.5,16.5,18.5,21,21.5,23.5z"/>
	<circle fill="none" stroke="#FFFFFF" stroke-linejoin="round" stroke-miterlimit="10" cx="12" cy="6" r="3"/>
	<circle fill="none" stroke="#FFFFFF" stroke-linejoin="round" stroke-miterlimit="10" cx="5.75" cy="9.281" r="0.25"/>
	<path fill="none" stroke="#FFFFFF" stroke-linejoin="round" stroke-miterlimit="10" d="M16.5,2.531h3V4.5h-3V2.531z M10.5,3.354
		V0.5 M13.5,3.395V0.5 M10.5,12.5V8.625 M13.5,12.5V8.709 M2.5,12.5h19 M0.5,14.5h23 M2,16.5h20 M4,21.5h16"/>
</g>
</svg>
